<?xml version="1.0" encoding="utf-8"?>
<!-- Generator: Adobe Illustrator 28.3.0, SVG Export Plug-In . SVG Version: 6.00 Build 0)  -->
<svg version="1.1" id="Capa_1" xmlns="http://www.w3.org/2000/svg" xmlns:xlink="http://www.w3.org/1999/xlink" x="0px" y="0px"
	 viewBox="0 0 77 33" style="enable-background:new 0 0 77 33;" xml:space="preserve">
<style type="text/css">
	.st0{fill:#231F20;}
	.st1{fill:#E73629;}
</style>
<g>
	<g>
		<path class="st0" d="M21.5,13.4c-0.3-1-0.7-1.9-1.2-2.6c-0.6-0.8-1.3-1.4-2.2-1.8c-0.9-0.5-1.9-0.7-3.1-0.7c-1,0-2,0.2-2.9,0.6
			c-0.9,0.4-1.6,0.9-2.2,1.5c-0.6,0.7-1.1,1.4-1.4,2.3c-0.3,0.9-0.5,1.9-0.5,2.9c0,1.1,0.2,2,0.5,2.9c0.3,0.9,0.8,1.7,1.4,2.3
			c0.6,0.7,1.4,1.2,2.2,1.5c0.9,0.3,1.9,0.5,2.9,0.5c1.5,0,2.9-0.4,4-1.1c0.6-0.4,1.1-0.8,1.5-1.4c0.4-0.6,0.8-1.3,1-2.1l0.1-0.3
			c0,0,0-0.1-0.1-0.1h-3.6c-0.2,0-0.2,0.1-0.2,0.1l0,0.1c0,0.2-0.1,0.3-0.3,0.5c-0.1,0.2-0.3,0.3-0.6,0.5c-0.5,0.3-1,0.5-1.7,0.5
			c-0.5,0-0.9-0.1-1.3-0.2c-0.4-0.1-0.6-0.3-0.9-0.5c-0.2-0.2-0.4-0.5-0.6-0.9c-0.1-0.3-0.2-0.7-0.2-1.1h9.4c0.2,0,0.2-0.2,0.2-0.2
			l0-0.1c0-0.2,0-0.5,0-0.7C21.7,14.9,21.6,14.1,21.5,13.4 M12.8,12.5c0.2-0.3,0.5-0.5,0.8-0.6c0.3-0.2,0.8-0.3,1.3-0.3
			c0.4,0,0.8,0.1,1.1,0.2c0.3,0.1,0.5,0.3,0.7,0.5c0.3,0.4,0.6,0.9,0.8,1.6h-5.2c0-0.1,0.1-0.3,0.1-0.5C12.4,13,12.5,12.8,12.8,12.5
			"/>
		<path class="st0" d="M35,22.3l-5-7.2l4.5-6.5c0,0,0.1-0.1-0.1-0.1h-4.6c-0.1,0-0.2,0.1-0.2,0.1l-2.1,3.1l-2.1-3.1
			c0,0-0.1-0.1-0.2-0.1h-4.7c-0.1,0-0.1,0.1-0.1,0.1l0.3,0.5l4.2,6.1l-4.9,7.2c0,0-0.1,0.1,0.1,0.1h4.6c0.2,0,0.3-0.2,0.3-0.2
			l2.5-3.7l2.5,3.7c0,0,0.1,0.2,0.3,0.2h4.7C35.1,22.5,35,22.3,35,22.3"/>
		<path class="st0" d="M40.8,8.6h-5.3c-0.2,0-0.2,0.1-0.2,0.1l0.8,13.6c0,0,0,0.2,0.2,0.2H40c0.2,0,0.2-0.2,0.2-0.2L41,8.7
			C41,8.7,41,8.6,40.8,8.6"/>
		<path class="st0" d="M50.9,11.7c0,0,0.1,0,0.1-0.2V8.7c0,0,0-0.1-0.1-0.1h-2.5V4.7c0,0,0-0.2-0.1-0.2h-4c-0.2,0-0.1,0.2-0.1,0.2
			v3.8h-2c-0.2,0-0.2,0.1-0.2,0.1v2.8c0,0,0,0.2,0.1,0.2h2.1v7.5c0,0.7,0.1,1.3,0.4,1.8c0.3,0.5,0.6,0.8,1,1.1
			c0.4,0.2,0.9,0.4,1.5,0.5c0.5,0.1,1.1,0.1,1.7,0.1c0.4,0,0.7,0,1.1,0c0.4,0,0.7-0.1,1.1-0.1l0.2,0c0,0,0.1,0,0.1-0.2V19
			c0-0.2-0.1-0.1-0.1-0.1L50.6,19c-0.2,0-0.3,0.1-0.5,0.1c-0.2,0-0.4,0-0.6,0c-0.3,0-0.5,0-0.7-0.1c-0.2,0-0.3-0.1-0.3-0.1
			c0,0-0.1-0.1-0.1-0.3c0-0.2-0.1-0.4-0.1-0.7v-6.2H50.9z"/>
		<path class="st0" d="M65.2,12.5c-0.3-0.9-0.8-1.7-1.5-2.3c-0.6-0.6-1.4-1.1-2.3-1.5c-0.9-0.4-1.9-0.5-3-0.5
			c-1.1,0-2.1,0.2-2.9,0.5c-0.9,0.3-1.6,0.8-2.3,1.5c-0.6,0.6-1.1,1.4-1.5,2.3c-0.3,0.9-0.5,1.9-0.5,3c0,1.1,0.2,2.1,0.5,3
			c0.3,0.9,0.8,1.7,1.5,2.3c0.6,0.6,1.4,1.1,2.3,1.5c0.9,0.3,1.9,0.5,2.9,0.5c1.1,0,2.1-0.2,3-0.5c0.9-0.3,1.7-0.8,2.3-1.5
			c0.6-0.6,1.1-1.4,1.5-2.3c0.3-0.9,0.5-1.9,0.5-3C65.7,14.5,65.5,13.4,65.2,12.5 M59.9,19.1c-0.4,0.2-0.8,0.3-1.4,0.3
			c-0.6,0-1-0.1-1.4-0.3c-0.4-0.2-0.6-0.5-0.9-0.8c-0.2-0.4-0.4-0.8-0.5-1.2c-0.1-0.5-0.1-1-0.1-1.5c0-0.5,0.1-1,0.1-1.5
			c0.1-0.5,0.3-0.9,0.5-1.2c0.2-0.3,0.5-0.6,0.9-0.8c0.3-0.2,0.8-0.3,1.4-0.3c0.6,0,1,0.1,1.4,0.3c0.4,0.2,0.7,0.5,0.9,0.8
			c0.2,0.4,0.4,0.8,0.5,1.2c0.1,0.5,0.1,1,0.1,1.5c0,0.5,0,1-0.1,1.5c-0.1,0.5-0.3,0.9-0.5,1.2C60.5,18.6,60.2,18.9,59.9,19.1"/>
		<path class="st1" d="M40.8,25.8c0-1.4-1.2-2.6-2.6-2.6c-1.4,0-2.6,1.2-2.6,2.6c0,1.4,1.2,2.6,2.6,2.6
			C39.6,28.4,40.8,27.3,40.8,25.8"/>
		<path class="st0" d="M15.5,4.7l-2,2.6c0,0-0.1,0.1,0,0.1h2.4c0.2,0,0.3-0.1,0.3-0.1l3.4-2.6c0,0,0.1-0.1,0-0.1h-3.8
			C15.6,4.6,15.5,4.7,15.5,4.7"/>
		<path class="st0" d="M69.1,9.9c0,0.3-0.1,0.6-0.2,0.9c-0.2,0.3-0.4,0.5-0.6,0.6c-0.3,0.2-0.5,0.2-0.8,0.2c-0.3,0-0.6-0.1-0.9-0.2
			c-0.3-0.1-0.5-0.4-0.6-0.6c-0.2-0.3-0.2-0.5-0.2-0.9c0-0.3,0.1-0.6,0.2-0.9c0.2-0.3,0.4-0.5,0.6-0.6c0.3-0.2,0.5-0.2,0.9-0.2
			c0.3,0,0.6,0.1,0.8,0.2c0.3,0.2,0.5,0.4,0.6,0.6C69,9.3,69.1,9.6,69.1,9.9 M68.8,9.9c0-0.4-0.1-0.7-0.4-1c-0.3-0.3-0.6-0.4-1-0.4
			c-0.4,0-0.7,0.1-1,0.4c-0.3,0.3-0.4,0.6-0.4,1c0,0.4,0.1,0.7,0.4,1c0.3,0.3,0.6,0.4,1,0.4c0.4,0,0.7-0.1,1-0.4
			C68.6,10.6,68.8,10.3,68.8,9.9 M66.6,9h0.8c0.2,0,0.4,0,0.5,0.1c0.1,0.1,0.2,0.2,0.2,0.4c0,0.1,0,0.2-0.1,0.3
			c-0.1,0.1-0.2,0.2-0.4,0.2c0.1,0,0.1,0.1,0.2,0.1c0,0,0.1,0.1,0.1,0.2c0,0,0.1,0.2,0.3,0.5h-0.5c-0.2-0.3-0.3-0.6-0.4-0.6
			c-0.1-0.1-0.1-0.1-0.2-0.1c0,0,0,0-0.1,0v0.7h-0.5V9z M67.1,9.8h0.2c0.1,0,0.2,0,0.3-0.1c0.1,0,0.1-0.1,0.1-0.2
			c0-0.1,0-0.1-0.1-0.2c-0.1,0-0.1-0.1-0.3-0.1h-0.2V9.8z"/>
	</g>
</g>
<g>
</g>
<g>
</g>
<g>
</g>
<g>
</g>
<g>
</g>
<g>
</g>
</svg>
